<svg width="278.701" height="139.502" viewBox="0 0 278.701 139.502" xmlns="http://www.w3.org/2000/svg"><g id="svgGroup" stroke-linecap="round" fill-rule="evenodd" font-size="9pt" stroke="#000" stroke-width="0mm" fill="#ff8000" style="stroke:#000;stroke-width:0mm;fill:#ff8000"><path d="M 4.327 93.919 A 5.504 5.504 0 0 0 6.901 94.502 A 10.201 10.201 0 0 0 7.887 94.456 Q 10.242 94.227 11.451 92.852 A 5.867 5.867 0 0 0 12.101 91.928 Q 13.155 90.117 14.001 86.502 A 80.755 80.755 0 0 1 14.518 84.47 A 90.455 90.455 0 0 1 17.451 75.502 A 75.388 75.388 0 0 1 18.467 72.987 Q 19.321 70.982 20.197 69.283 A 37.32 37.32 0 0 1 21.901 66.302 A 26.134 26.134 0 0 1 22.267 65.745 Q 23.697 63.626 24.801 62.983 A 1.804 1.804 0 0 1 25.701 62.702 A 1.452 1.452 0 0 1 25.76 62.703 Q 26.592 62.737 26.759 63.738 A 3.445 3.445 0 0 1 26.801 64.302 A 15.446 15.446 0 0 1 26.785 64.964 Q 26.711 66.642 26.313 70.112 A 264.391 264.391 0 0 1 26.001 72.702 A 178.447 178.447 0 0 0 25.692 75.031 Q 25.235 78.678 25.08 81.295 A 41.155 41.155 0 0 0 25.001 83.702 Q 25.001 85.811 25.363 87.624 A 13.837 13.837 0 0 0 26.651 91.352 A 7.682 7.682 0 0 0 27.159 92.191 Q 27.971 93.353 29.09 93.931 A 5.393 5.393 0 0 0 31.601 94.502 Q 33.276 94.502 34.471 94.063 A 4.39 4.39 0 0 0 36.251 92.902 A 5.638 5.638 0 0 0 36.961 91.889 Q 37.641 90.687 38.234 88.686 A 36.157 36.157 0 0 0 38.801 86.502 Q 40.301 80.402 42.701 74.902 Q 45.101 69.402 47.501 66.052 A 27.276 27.276 0 0 1 48.107 65.236 Q 50.07 62.702 51.201 62.702 A 1.452 1.452 0 0 1 51.26 62.703 Q 52.092 62.737 52.259 63.738 A 3.445 3.445 0 0 1 52.301 64.302 A 10.115 10.115 0 0 1 52.297 64.58 Q 52.246 66.438 51.539 70.263 A 135.129 135.129 0 0 1 51.001 73.002 A 187.798 187.798 0 0 0 50.803 74.033 Q 49.915 78.741 49.683 81.388 A 18.845 18.845 0 0 0 49.601 83.002 A 21.172 21.172 0 0 0 49.689 84.973 Q 49.851 86.708 50.313 88.138 A 9.508 9.508 0 0 0 52.201 91.552 Q 53.968 93.557 56.89 94.199 A 14.03 14.03 0 0 0 59.901 94.502 Q 66.201 94.502 71.151 91.102 A 39.649 39.649 0 0 0 75.065 88.026 A 47.961 47.961 0 0 0 76.596 86.592 A 18.867 18.867 0 0 0 78.501 88.802 Q 84.301 94.502 94.801 94.502 Q 102.501 94.502 109.251 90.702 A 53.631 53.631 0 0 0 111.015 89.665 Q 113.578 88.09 115.642 86.402 A 28.996 28.996 0 0 0 115.715 86.342 A 18.867 18.867 0 0 0 117.801 88.802 Q 123.601 94.502 134.101 94.502 Q 141.801 94.502 148.551 90.702 A 53.631 53.631 0 0 0 150.315 89.665 Q 155.8 86.295 159.001 82.402 A 6.749 6.749 0 0 0 159.22 82.134 A 35.487 35.487 0 0 0 159.603 83.133 Q 162.235 89.421 167.34 92.232 A 20.157 20.157 0 0 0 177.201 94.502 A 24.839 24.839 0 0 0 178.425 94.472 A 20.322 20.322 0 0 0 188.901 91.102 A 38.566 38.566 0 0 0 192.35 88.508 A 45.062 45.062 0 0 0 196.226 84.801 A 33.079 33.079 0 0 0 197.051 86.502 A 19.197 19.197 0 0 0 198.143 88.317 Q 202.363 94.502 210.101 94.502 A 23.66 23.66 0 0 0 210.126 94.502 A 20.024 20.024 0 0 0 221.551 91.102 A 38.929 38.929 0 0 0 225.233 88.285 A 46.036 46.036 0 0 0 226.048 87.56 A 15.755 15.755 0 0 0 227.551 90.352 A 12.208 12.208 0 0 0 228.488 91.554 A 8.258 8.258 0 0 0 234.901 94.502 A 8.413 8.413 0 0 0 236.645 94.32 Q 239.695 93.675 242.501 90.752 A 17.233 17.233 0 0 0 244.372 88.411 Q 246.655 85.008 248.101 79.802 A 380.176 380.176 0 0 1 247.69 82.86 Q 247.037 87.569 246.501 90.402 L 246.201 92.702 Q 239.179 98.083 234.246 102.668 A 84.129 84.129 0 0 0 229.651 107.252 Q 225.812 111.419 223.566 114.962 A 26.719 26.719 0 0 0 221.651 118.502 Q 219.501 123.402 219.501 128.102 A 14.662 14.662 0 0 0 219.613 129.946 A 10.575 10.575 0 0 0 222.701 136.352 A 10.533 10.533 0 0 0 227.171 138.982 A 13.461 13.461 0 0 0 231.001 139.502 A 13.857 13.857 0 0 0 238.537 137.32 Q 241.061 135.728 243.257 132.974 A 32.613 32.613 0 0 0 246.651 127.652 A 75.028 75.028 0 0 0 250.63 118.379 Q 254.117 108.631 256.601 95.102 L 275.801 82.202 Q 277.301 81.202 278.001 79.902 A 4.943 4.943 0 0 0 278.404 78.872 Q 278.701 77.799 278.701 76.302 Q 278.701 74.402 277.951 73.152 A 3.273 3.273 0 0 0 277.637 72.711 A 2.186 2.186 0 0 0 275.901 71.902 Q 275.213 71.902 274.384 72.28 A 7.207 7.207 0 0 0 273.601 72.702 Q 266.301 77.502 258.601 83.302 L 261.201 67.202 Q 263.801 52.502 263.801 50.002 A 4.199 4.199 0 0 0 263.799 49.883 Q 263.788 49.472 263.695 49.134 A 1.919 1.919 0 0 0 262.901 48.002 A 2.402 2.402 0 0 0 262.43 47.764 Q 261.488 47.402 259.701 47.402 Q 257.729 47.402 256.346 47.866 A 5.254 5.254 0 0 0 254.751 48.702 A 5.37 5.37 0 0 0 253.746 49.756 Q 253.262 50.418 252.884 51.293 A 12.336 12.336 0 0 0 252.301 53.002 A 175.362 175.362 0 0 1 251.168 57.02 Q 249.303 63.332 247.351 68.002 A 89.066 89.066 0 0 1 246.861 69.152 Q 245.371 72.579 243.986 74.924 A 23.883 23.883 0 0 1 242.551 77.102 A 22.589 22.589 0 0 1 242.407 77.292 Q 240.253 80.102 238.801 80.102 Q 237.095 80.102 236.775 77.593 A 10.271 10.271 0 0 1 236.701 76.302 Q 236.701 74.652 236.984 72.364 A 63.407 63.407 0 0 1 237.301 70.152 Q 237.901 66.402 238.701 62.302 A 74.279 74.279 0 0 1 238.74 62.108 Q 239.036 60.647 239.426 59.022 A 124.01 124.01 0 0 1 240.301 55.602 A 198.933 198.933 0 0 0 240.598 54.341 Q 241.225 51.644 241.362 50.635 A 3.471 3.471 0 0 0 241.401 50.202 A 4.518 4.518 0 0 0 241.4 50.125 Q 241.378 48.783 240.551 48.102 A 2.096 2.096 0 0 0 240.14 47.841 Q 239.244 47.402 237.501 47.402 Q 234.941 47.402 233.287 47.962 A 5.57 5.57 0 0 0 231.801 48.702 A 5.856 5.856 0 0 0 230.812 49.613 Q 229.707 50.884 229.001 53.002 A 98.87 98.87 0 0 0 227.347 58.566 A 78.663 78.663 0 0 0 225.701 66.252 A 75.931 75.931 0 0 0 225 72.173 A 98.01 98.01 0 0 0 224.775 75.999 A 79.185 79.185 0 0 1 223.331 77.547 Q 221.108 79.858 219.401 81.152 A 11.432 11.432 0 0 1 216.826 82.629 A 12.07 12.07 0 0 1 212.201 83.502 A 7.266 7.266 0 0 1 211.644 83.481 A 5.299 5.299 0 0 1 208.001 81.752 A 5.382 5.382 0 0 1 207.69 81.378 Q 206.331 79.592 205.701 75.902 A 173.045 173.045 0 0 0 212.304 66.248 A 144.803 144.803 0 0 0 223.601 44.802 Q 230.201 29.102 230.201 17.202 Q 230.201 12.014 229.127 8.331 A 15.715 15.715 0 0 0 227.451 4.452 A 11.661 11.661 0 0 0 226.348 2.94 A 8.163 8.163 0 0 0 219.901 0.002 Q 211.401 0.002 205.251 11.202 A 69.439 69.439 0 0 0 204.843 11.956 Q 201.808 17.649 199.528 24.449 A 113.014 113.014 0 0 0 195.951 38.002 Q 192.801 53.602 192.801 65.802 A 68.156 68.156 0 0 0 192.96 70.537 A 49.902 49.902 0 0 0 193.388 74.593 A 92.09 92.09 0 0 1 191.574 76.553 Q 190.265 77.923 189.081 79.023 A 35.701 35.701 0 0 1 186.901 80.902 Q 183.601 83.502 179.301 83.502 A 11.441 11.441 0 0 1 177.265 83.329 A 7.985 7.985 0 0 1 171.551 79.302 Q 169.101 75.102 169.101 64.702 A 101.939 101.939 0 0 1 169.112 63.268 Q 169.148 60.73 169.301 56.902 L 181.501 56.902 Q 192.801 56.902 192.801 50.002 Q 192.801 48.748 192.496 48.016 A 1.879 1.879 0 0 0 192.101 47.402 Q 191.595 46.896 190.619 46.756 A 5.768 5.768 0 0 0 189.801 46.702 L 178.601 46.702 A 47.53 47.53 0 0 0 182.174 43.2 A 33.828 33.828 0 0 0 191.601 19.702 A 25.393 25.393 0 0 0 191.593 19.074 Q 191.539 16.896 191.108 15.017 A 14.264 14.264 0 0 0 189.201 10.402 A 10.433 10.433 0 0 0 188.806 9.834 Q 186.465 6.702 182.601 6.702 A 11.751 11.751 0 0 0 180.328 6.922 Q 177.721 7.435 175.28 9.139 A 20.38 20.38 0 0 0 171.951 12.102 Q 168.992 15.329 166.552 19.878 A 59.1 59.1 0 0 0 163.501 26.602 Q 160.001 35.702 158.301 46.702 L 152.601 46.702 A 6.292 6.292 0 0 0 151.789 46.752 Q 148.928 47.124 148.287 50.258 A 10.231 10.231 0 0 0 148.101 52.302 A 8.767 8.767 0 0 0 148.179 53.515 Q 148.387 55.002 149.151 55.802 Q 150.201 56.902 153.201 56.902 L 157.101 56.902 Q 156.801 61.402 156.801 65.802 A 63.566 63.566 0 0 0 157.062 71.882 A 3.137 3.137 0 0 0 156.241 72.319 A 4.764 4.764 0 0 0 155.401 73.102 Q 151.201 78.202 145.451 81.352 A 34.393 34.393 0 0 1 142.75 82.688 Q 138.615 84.502 135.201 84.502 A 19.888 19.888 0 0 1 134.224 84.478 Q 132.353 84.386 130.835 83.933 A 8.254 8.254 0 0 1 125.701 79.902 Q 133.456 77.996 138.253 75.204 A 20.43 20.43 0 0 0 142.451 72.052 Q 147.401 67.102 147.401 60.202 A 16.681 16.681 0 0 0 147.092 56.915 A 11.46 11.46 0 0 0 143.901 50.852 Q 140.401 47.402 134.601 47.402 Q 128.101 47.402 122.951 50.902 Q 117.801 54.402 114.901 60.352 Q 112.001 66.302 112.001 73.202 A 27.897 27.897 0 0 0 112.248 77.088 A 33.852 33.852 0 0 1 106.151 81.352 A 34.393 34.393 0 0 1 103.45 82.688 Q 99.315 84.502 95.901 84.502 A 19.888 19.888 0 0 1 94.924 84.478 Q 93.053 84.386 91.535 83.933 A 8.254 8.254 0 0 1 86.401 79.902 Q 94.156 77.996 98.953 75.204 A 20.43 20.43 0 0 0 103.151 72.052 Q 108.101 67.102 108.101 60.202 A 16.681 16.681 0 0 0 107.792 56.915 A 11.46 11.46 0 0 0 104.601 50.852 Q 101.101 47.402 95.301 47.402 Q 88.801 47.402 83.651 50.902 Q 78.501 54.402 75.601 60.352 Q 72.701 66.302 72.701 73.202 A 27.897 27.897 0 0 0 73.002 77.471 A 69.506 69.506 0 0 1 71.144 79.432 A 37.373 37.373 0 0 1 69.451 81.052 A 18.563 18.563 0 0 1 68.886 81.536 Q 67.411 82.747 66.164 83.212 A 4.196 4.196 0 0 1 64.701 83.502 A 4.066 4.066 0 0 1 64.572 83.5 Q 62.366 83.43 61.916 80.937 A 8.127 8.127 0 0 1 61.801 79.502 A 12.459 12.459 0 0 1 61.838 78.601 Q 62.009 76.276 62.961 71.526 A 209.257 209.257 0 0 1 63.701 68.002 Q 65.368 60.272 65.772 56.16 A 23.598 23.598 0 0 0 65.901 53.902 A 9.576 9.576 0 0 0 65.624 51.495 Q 64.858 48.55 61.973 47.724 A 9.357 9.357 0 0 0 59.401 47.402 A 11.699 11.699 0 0 0 55.143 48.254 Q 53.343 48.955 51.461 50.232 A 30.349 30.349 0 0 0 48.001 53.002 A 24.279 24.279 0 0 0 47.931 53.066 Q 43.777 56.91 40.133 63.869 A 80.726 80.726 0 0 0 36.901 70.902 A 123.014 123.014 0 0 1 36.902 70.898 Q 37.127 69.548 37.632 67.189 A 228.8 228.8 0 0 1 38.001 65.502 Q 39.441 59.136 39.789 55.757 A 18.458 18.458 0 0 0 39.901 53.902 A 12.369 12.369 0 0 0 39.811 52.361 Q 39.695 51.438 39.429 50.691 A 4.939 4.939 0 0 0 38.451 49.002 A 3.615 3.615 0 0 0 38.35 48.895 Q 36.882 47.402 33.501 47.402 A 9.832 9.832 0 0 0 31.751 47.562 Q 29.029 48.054 26.051 50.052 A 20.976 20.976 0 0 0 24.21 51.445 Q 21.222 53.967 18.351 58.102 A 39.608 39.608 0 0 0 17.829 58.873 Q 14.411 64.05 11.901 71.302 Q 12.301 66.902 12.901 63.952 A 117.266 117.266 0 0 1 13.315 62.006 Q 13.541 60.981 13.807 59.854 A 217.888 217.888 0 0 1 14.501 57.002 A 131.293 131.293 0 0 0 15.006 55.063 Q 15.734 52.168 15.929 50.693 A 7.037 7.037 0 0 0 16.001 49.802 Q 16.001 49.14 15.822 48.679 A 1.541 1.541 0 0 0 15.201 47.902 A 2.213 2.213 0 0 0 14.784 47.704 Q 13.955 47.402 12.401 47.402 A 17.019 17.019 0 0 0 10.59 47.493 Q 9.497 47.61 8.589 47.878 A 7.202 7.202 0 0 0 6.651 48.752 A 6.654 6.654 0 0 0 4.538 51.045 A 9.683 9.683 0 0 0 3.701 53.002 A 76.942 76.942 0 0 0 3.145 54.838 A 81.944 81.944 0 0 0 0.001 77.702 A 85.718 85.718 0 0 0 0.052 80.754 Q 0.204 85.003 0.802 87.872 A 16.809 16.809 0 0 0 1.551 90.502 A 8.457 8.457 0 0 0 2.292 91.991 Q 3.12 93.292 4.327 93.919 Z M 213.519 15.499 A 55.086 55.086 0 0 0 212.501 18.202 Q 209.601 26.502 207.401 38.802 A 156.343 156.343 0 0 0 205.321 55.242 A 134.668 134.668 0 0 0 205.001 62.402 A 133.727 133.727 0 0 0 213.865 45.191 A 116.899 116.899 0 0 0 216.301 38.952 Q 220.052 28.458 220.453 19.6 A 46.382 46.382 0 0 0 220.501 17.502 A 31.509 31.509 0 0 0 220.418 15.114 Q 220.02 9.902 217.701 9.902 Q 215.812 9.902 213.519 15.499 Z M 179.901 16.302 A 1.619 1.619 0 0 0 178.986 16.628 Q 177.982 17.321 176.84 19.484 A 23.496 23.496 0 0 0 176.551 20.052 Q 174.701 23.802 173.051 30.452 Q 171.401 37.102 170.301 45.202 A 36.677 36.677 0 0 0 176.267 38.705 A 31.376 31.376 0 0 0 179.151 33.752 A 37.252 37.252 0 0 0 180.949 29.151 Q 181.739 26.615 181.987 24.29 A 19.652 19.652 0 0 0 182.101 22.202 Q 182.101 17.648 180.79 16.609 A 1.392 1.392 0 0 0 179.901 16.302 Z M 237.294 124.742 A 36.133 36.133 0 0 0 237.701 124.002 Q 240.101 119.512 242.501 110.407 A 184.128 184.128 0 0 0 243.901 104.702 A 90.074 90.074 0 0 0 239.503 108.652 Q 235.123 112.874 232.751 116.552 Q 230.575 119.926 229.772 122.763 A 11.534 11.534 0 0 0 229.301 125.902 Q 229.301 127.602 229.951 128.702 Q 230.601 129.802 232.101 129.802 Q 234.436 129.802 237.294 124.742 Z M 84.801 71.902 L 84.801 72.102 A 31.232 31.232 0 0 0 88.836 70.87 Q 90.882 70.08 92.504 69.053 A 15.789 15.789 0 0 0 94.101 67.902 A 10.841 10.841 0 0 0 96.037 65.871 A 7.5 7.5 0 0 0 97.501 61.402 A 5.579 5.579 0 0 0 97.354 60.085 A 3.877 3.877 0 0 0 96.451 58.352 A 3.462 3.462 0 0 0 94.352 57.257 A 4.943 4.943 0 0 0 93.601 57.202 A 6.081 6.081 0 0 0 89.425 58.882 Q 88.307 59.889 87.351 61.502 Q 84.801 65.802 84.801 71.902 Z M 124.101 71.902 L 124.101 72.102 A 31.232 31.232 0 0 0 128.136 70.87 Q 130.182 70.08 131.804 69.053 A 15.789 15.789 0 0 0 133.401 67.902 A 10.841 10.841 0 0 0 135.337 65.871 A 7.5 7.5 0 0 0 136.801 61.402 A 5.579 5.579 0 0 0 136.654 60.085 A 3.877 3.877 0 0 0 135.751 58.352 A 3.462 3.462 0 0 0 133.652 57.257 A 4.943 4.943 0 0 0 132.901 57.202 A 6.081 6.081 0 0 0 128.725 58.882 Q 127.607 59.889 126.651 61.502 Q 124.101 65.802 124.101 71.902 Z" vector-effect="non-scaling-stroke"/></g></svg>